:version 1.10
:name ASF
:units
  mass 1
  length 1
  angle deg
:documentation
  ASF file generated by Kaydara
:root
  axis xyz
  order  tx ty tz rx ry rz
  position 0 0 0
  orientation 0 0 0
:bonedata
  begin
    id 1
    name LeftUpLegDummy
    direction 1 -2.30186e-007 -8.31532e-007
    length 2.93387
    axis 0 0 0 xyz
  end
  begin
    id 2
    name LeftUpLeg
    direction -1.82929e-007 -1 -1.48925e-009
    length 17.3336
    axis -3.48766 0.00143442 -0.000521554 xyz
    dof rx ry rz
  end
  begin
    id 3
    name LeftLeg
    direction -1.82929e-007 -1 -5.23717e-011
    length 14.9995
    axis 3.68178 -0.00654042 -0.000282425 xyz
    dof rx ry rz
  end
  begin
    id 4
    name LeftFoot
    direction 8.31532e-007 -4.54534e-011 1
    length 6.74421
    axis 1.87234e-006 4.66016e-005 -5.96866e-006 xyz
    dof rx ry rz
  end
  begin
    id 5
    name LeftToes
    direction 0.00818058 -0.00485161 0.999955
    length 3.85048
    axis 1.06247e-005 4.65869e-005 -5.96999e-006 xyz
    dof rx ry rz
  end
  begin
    id 6
    name SpineDummy
    direction -5.8607e-008 0.943407 -0.331637
    length 5.93572
    axis 0 0 0 xyz
  end
  begin
    id 7
    name Spine
    direction -1.04988e-007 0.999988 0.00495137
    length 10.1015
    axis -0.001389 0.000121417 6.61666e-006 xyz
    dof rx ry rz
  end
  begin
    id 8
    name Spine1
    direction 0 0 0
    length 0
    axis -0.001389 0.00012144 6.56766e-006 xyz
    dof rx ry rz
  end
  begin
    id 9
    name RightShoulderDummy
    direction -0.98348 0.17941 -0.0240696
    length 3.59882
    axis -0.001389 0.00012144 6.56766e-006 xyz
  end
  begin
    id 10
    name RightShoulder
    direction -0.978693 0.204882 0.0135597
    length 2.70001
    axis 0.215806 0.000203631 -0.00679732 xyz
    dof rx ry rz
  end
  begin
    id 11
    name RightArm
    direction -1 3.85509e-006 8.31394e-007
    length 10.2459
    axis -23.2009 -0.134239 -0.964098 xyz
    dof rx ry rz
  end
  begin
    id 12
    name RightForeArm
    direction -1 3.85569e-006 8.3129e-007
    length 8.16799
    axis -9.92322 0.0658061 0.17887 xyz
    dof rx ry rz
  end
  begin
    id 13
    name RightHand
    direction -0.992843 -0.0414604 0.112003
    length 5.28593
    axis -0.00960638 0.00330669 -0.185225 xyz
    dof rx ry rz
  end
  begin
    id 14
    name LeftShoulder1Dummy
    direction 0.983523 0.179172 -0.0240748
    length 3.59866
    axis -0.001389 0.00012144 6.56766e-006 xyz
  end
  begin
    id 15
    name LeftShoulder1
    direction 0.978627 0.205195 0.0135605
    length 2.70019
    axis -0.001389 0.00012144 6.57583e-006 xyz
    dof rx ry rz
  end
  begin
    id 16
    name LeftArm
    direction 1 3.51895e-006 -8.60188e-007
    length 10.2459
    axis -23.1894 0.134785 0.967513 xyz
    dof rx ry rz
  end
  begin
    id 17
    name LeftForeArm
    direction 1 3.51921e-006 -7.32029e-007
    length 8.16799
    axis -9.91835 -0.0656957 -0.177789 xyz
    dof rx ry rz
  end
  begin
    id 18
    name LeftHand
    direction 0.992938 -0.0411636 0.11126
    length 5.32135
    axis -0.00960237 -0.00340661 0.185177 xyz
    dof rx ry rz
  end
  begin
    id 19
    name HEadDummy
    direction 1.01974e-006 0.999861 -0.016675
    length 2.99946
    axis -0.001389 0.00012144 6.56766e-006 xyz
  end
  begin
    id 20
    name HEad
    direction -0.0222689 0.980941 0.193023
    length 5.12695
    axis -0.001389 0.00012144 6.56766e-006 xyz
    dof rx ry rz
  end
  begin
    id 21
    name RightUpLegDummy
    direction -1 2.30186e-007 8.31532e-007
    length 2.93387
    axis 0 0 0 xyz
  end
  begin
    id 22
    name RightUpLeg
    direction -1.82966e-007 -1 1.56832e-007
    length 17.3336
    axis -3.4909 -0.000906625 0.00028951 xyz
    dof rx ry rz
  end
  begin
    id 23
    name RightLeg
    direction -1.82786e-007 -1 -1.80317e-007
    length 14.9995
    axis 3.68513 0.0193739 -0.131021 xyz
    dof rx ry rz
  end
  begin
    id 24
    name RightFoot
    direction 8.31721e-007 -4.63324e-011 1
    length 6.74421
    axis 4.81691e-005 -0.120479 -0.188785 xyz
    dof rx ry rz
  end
  begin
    id 25
    name RightToes
    direction 0.00124746 -0.014064 0.9999
    length 3.85082
    axis 0.000481921 0.542163 -0.142575 xyz
    dof rx ry rz
  end
:hierarchy
  begin
    root LeftUpLegDummy SpineDummy RightUpLegDummy
    LeftUpLegDummy LeftUpLeg
    LeftUpLeg LeftLeg
    LeftLeg LeftFoot
    LeftFoot LeftToes
    SpineDummy Spine
    Spine Spine1
    Spine1 RightShoulderDummy LeftShoulder1Dummy HEadDummy
    RightShoulderDummy RightShoulder
    RightShoulder RightArm
    RightArm RightForeArm
    RightForeArm RightHand
    LeftShoulder1Dummy LeftShoulder1
    LeftShoulder1 LeftArm
    LeftArm LeftForeArm
    LeftForeArm LeftHand
    HEadDummy HEad
    RightUpLegDummy RightUpLeg
    RightUpLeg RightLeg
    RightLeg RightFoot
    RightFoot RightToes
  end

:SAMPLES-PER-SECOND 30
:FULLY-SPECIFIED
:DEGREES
246
root  3.04426 34.4425 29.7817 6.05309 10.375 -0.604308
LeftUpLeg  -12.125 5.70217 1.28101
LeftLeg  14.3357 0.331321 0.0606593
LeftFoot  -0.513044 -0.00118073 0.00780321
LeftToes  -14.2359 2.60077e-006 -1.42232e-007
Spine  1.49868 2.74515 -2.30744
Spine1  2.71469 5.65298 -4.50285
RightShoulder  0.0228682 7.26985 6.78513
RightArm  -56.2018 -11.4533 59.3941
RightForeArm  6.42395 59.7608 17.6512
RightHand  0.593919 -8.4969 -7.60637
LeftShoulder1  0.0191218 1.86166 -11.4301
LeftArm  -27.2194 17.7059 -63.5801
LeftForeArm  33.7199 -13.5742 -2.43222
LeftHand  0.103661 2.957 3.65071
HEad  -4.51882 -24.5672 -0.266951
RightUpLeg  -10.1367 -5.65969 -5.57891
RightLeg  10.5858 6.93333 0.839309
RightFoot  3.90046 -0.00518342 0.529677
RightToes  -37.2393 -0.190991 -0.287019
247
root  3.00901 34.4411 29.7542 5.92025 9.4722 -0.537035
LeftUpLeg  -11.9875 5.86929 1.26205
LeftLeg  14.4673 1.05465 0.199214
LeftFoot  -0.52607 -0.000442008 0.00144754
LeftToes  -14.3088 2.60077e-006 -1.42232e-007
Spine  1.54437 2.67066 -2.20201
Spine1  2.8114 5.50975 -4.30672
RightShoulder  0.0218048 7.11698 6.79564
RightArm  -56.2444 -10.7487 59.6301
RightForeArm  7.96033 60.7603 18.4135
RightHand  0.706945 -8.65317 -8.94684
LeftShoulder1  0.0182408 1.90211 -11.2924
LeftArm  -27.4464 17.9526 -63.8567
LeftForeArm  33.4009 -13.8206 -2.47839
LeftHand  0.101177 2.95943 3.53701
HEad  -4.70015 -25.0653 -0.458346
RightUpLeg  -10.2433 -5.55129 -5.61683
RightLeg  10.6518 7.74662 0.946171
RightFoot  3.88523 -0.0072753 0.584346
RightToes  -36.9534 -0.191296 -0.286938
248
root  2.96751 34.4426 29.7261 5.79892 8.62218 -0.472188
LeftUpLeg  -11.8143 6.18814 1.2461
LeftLeg  14.4728 1.5897 0.301267
LeftFoot  -0.513969 0.000242902 -0.00364187
LeftToes  -14.252 2.60077e-006 -1.42232e-007
Spine  1.58359 2.61322 -2.1206
Spine1  2.89321 5.39318 -4.15194
RightShoulder  0.02069 7.09587 6.67068
RightArm  -56.5889 -9.80194 59.6167
RightForeArm  9.03339 60.7937 18.4428
RightHand  0.790422 -8.90455 -9.74798
LeftShoulder1  0.018013 1.91112 -11.1293
LeftArm  -27.4735 18.0533 -64.1267
LeftForeArm  33.1551 -14.1931 -2.54816
LeftHand  0.099108 2.85467 3.59725
HEad  -5.10577 -25.5275 -0.343335
RightUpLeg  -10.3212 -5.21792 -5.63417
RightLeg  10.6351 8.28492 1.00902
RightFoot  3.92826 -0.00856676 0.626458
RightToes  -36.9303 -0.191515 -0.286834
249
root  2.91939 34.4458 29.6985 5.69673 7.89155 -0.381186
LeftUpLeg  -11.6128 6.34249 1.21941
LeftLeg  14.3468 2.17833 0.408449
LeftFoot  -0.385814 0.00071477 -0.00504979
LeftToes  -14.2586 2.60077e-006 -1.42232e-007
Spine  1.61311 2.5606 -2.08123
Spine1  2.95188 5.2798 -4.07075
RightShoulder  0.0196133 7.11433 6.48918
RightArm  -56.4535 -8.82088 59.2498
RightForeArm  9.30198 59.8924 17.7561
RightHand  0.837671 -9.06021 -10.1656
LeftShoulder1  0.0183997 1.91519 -11.0202
LeftArm  -27.2347 18.0122 -64.2903
LeftForeArm  32.7629 -14.7383 -2.65074
LeftHand  0.0972513 2.73892 3.65157
HEad  -5.49583 -25.9487 -0.0252781
RightUpLeg  -10.3707 -4.982 -5.65957
RightLeg  10.5636 8.79395 1.05946
RightFoot  4.02062 -0.0102755 0.674673
RightToes  -37.0242 -0.191662 -0.286717
250
root  2.86357 34.4481 29.6714 5.61711 7.31048 -0.325281
LeftUpLeg  -11.48 6.62756 1.24408
LeftLeg  14.268 2.47529 0.460807
LeftFoot  -0.272022 0.00100812 -0.00337195
LeftToes  -14.3595 2.60077e-006 -1.42232e-007
Spine  1.63641 2.52324 -2.048
Spine1  2.99288 5.1937 -3.99735
RightShoulder  0.0186771 7.10448 6.39435
RightArm  -55.703 -7.96155 58.5555
RightForeArm  9.09269 58.7476 16.9378
RightHand  0.869885 -9.11796 -10.4993
LeftShoulder1  0.019362 1.93 -11.0157
LeftArm  -26.7743 17.7682 -64.3604
LeftForeArm  32.264 -15.3444 -2.76547
LeftHand  0.0938868 2.72636 3.56483
HEad  -5.98246 -26.4477 0.379524
RightUpLeg  -10.4159 -4.79596 -5.63471
RightLeg  10.4923 9.22645 1.09954
RightFoot  4.07404 -0.0113582 0.712559
RightToes  -36.9364 -0.191749 -0.286601
251
root  2.79793 34.4514 29.6417 5.62124 6.93394 -0.26167
LeftUpLeg  -11.3784 6.79688 1.2618
LeftLeg  14.0103 2.73368 0.496371
LeftFoot  -0.0631771 0.00095899 0.00388038
LeftToes  -14.4974 2.60077e-006 -1.42232e-007
Spine  1.66947 2.48536 -2.03645
Spine1  3.05225 5.10134 -3.95652
RightShoulder  0.0178839 7.07632 6.38851
RightArm  -54.9588 -7.22768 57.8264
RightForeArm  8.78985 57.9849 16.4234
RightHand  0.882044 -9.26968 -10.4704
LeftShoulder1  0.0208614 1.88665 -10.9916
LeftArm  -26.3104 17.2665 -64.4561
LeftForeArm  31.7955 -15.8736 -2.86621
LeftHand  0.0912508 2.69074 3.43328
HEad  -6.63746 -27.0824 0.905364
RightUpLeg  -10.518 -4.66064 -5.59426
RightLeg  10.438 9.49376 1.12204
RightFoot  4.0803 -0.0112578 0.731232
RightToes  -36.6896 -0.191789 -0.286497
252
root  2.73407 34.4553 29.6106 5.65178 6.63888 -0.173492
LeftUpLeg  -11.2985 7.03039 1.24019
LeftLeg  13.7138 2.87768 0.507254
LeftFoot  0.188591 0.000702381 0.01455
LeftToes  -14.6284 2.60077e-006 -1.42232e-007
Spine  1.70688 2.46019 -2.04225
Spine1  3.11704 5.03503 -3.95134
RightShoulder  0.0171544 7.12611 6.37391
RightArm  -54.5211 -6.61018 57.2605
RightForeArm  8.92577 57.6815 16.2258
RightHand  0.902455 -9.44891 -10.5098
LeftShoulder1  0.0243434 1.79583 -10.9064
LeftArm  -25.9149 16.6946 -64.6451
LeftForeArm  31.2931 -16.3924 -2.96553
LeftHand  0.0910889 2.68704 3.50845
HEad  -7.28943 -27.603 1.36077
RightUpLeg  -10.6487 -4.63534 -5.57842
RightLeg  10.4212 9.80114 1.15514
RightFoot  4.09643 -0.0115193 0.754431
RightToes  -36.5853 -0.191796 -0.286416
